<svg width="1024" height="1024" viewBox="0 0 1024 1024" fill="none" xmlns="http://www.w3.org/2000/svg">
<path fill-rule="evenodd" clip-rule="evenodd" d="M322.238 335.205C249.317 359.512 176.667 383.565 160.793 388.655C144.919 393.748 130.414 399.221 128.562 400.823C121.772 406.685 122.116 409.921 132.622 438.907L142.754 466.867L143.656 588.761L144.558 710.655L149.358 717.907C151.997 721.895 157.274 726.704 161.083 728.596C167.732 731.897 174.159 732.034 322.238 732.034H476.468L484.879 727.09C489.506 724.37 495.189 719.094 497.507 715.365L501.722 708.584L502.227 597.972L502.73 487.357L496.545 481.172L490.358 474.985H323.921C232.383 474.985 157.899 474.571 158.405 474.066C159.469 473.002 221.803 451.579 372.698 400.42C494.296 359.193 488.159 362.258 482.327 345.671C480.648 340.897 475.959 327.561 471.906 316.038C465.991 299.211 463.655 294.682 460.048 293.038C457.576 291.913 455.39 290.995 455.188 291C454.986 291.005 395.159 310.898 322.238 335.205ZM654.148 345.004C622.227 345.965 620.328 346.229 610.452 351.079C599.121 356.642 589.631 366.506 583.356 379.243L579.288 387.497V537.218C579.288 676.865 579.506 687.566 582.542 696.266C586.895 708.738 597.835 720.768 610.47 726.973L620.777 732.034H727.605H834.433L838.542 727.916L842.651 723.796L842.054 576.392L841.455 428.986L837.545 425.108C833.656 421.253 833.04 421.226 732.594 420.43C621.929 419.556 626.044 419.99 620.652 408.624C617.122 401.187 618.538 393.892 624.623 388.176L629.183 383.89L742.211 383.399C858.316 382.894 863.481 383.166 866.102 389.918C866.742 391.563 867.74 458.863 868.32 539.473L869.377 686.036H880.818C889.958 686.036 893.003 685.291 895.968 682.325C899.675 678.619 899.677 678.481 898.504 515.92C897.413 364.495 897.112 352.912 894.15 348.714L890.966 344.205L789.243 344.102C733.296 344.046 672.502 344.452 654.148 345.004Z" fill="#AD46FF"/>
</svg>
