<svg width="2838" height="1024" viewBox="0 0 2838 1024" fill="none" xmlns="http://www.w3.org/2000/svg">
<path d="M1101.46 700C1084 700 1071.52 696.57 1064.04 689.709C1056.55 682.848 1052.81 673.024 1052.81 660.238C1052.81 654.001 1053.28 643.398 1054.21 628.429C1055.15 613.148 1056.4 595.84 1057.96 576.505C1059.52 557.17 1061.07 536.743 1062.63 515.225C1064.19 493.707 1065.75 473.436 1067.31 454.413C1068.87 435.39 1070.12 418.705 1071.05 404.36C1071.99 390.014 1072.46 380.191 1072.46 374.889C1072.46 370.212 1074.95 367.873 1079.94 367.873H1105.67C1123.13 367.873 1135.14 371.303 1141.69 378.164C1148.55 384.713 1151.98 394.536 1151.98 407.634C1151.98 409.194 1151.82 410.597 1151.51 411.844C1151.51 413.092 1151.51 414.495 1151.51 416.054L1136.08 634.51H1220.28C1222.15 634.51 1223.86 635.134 1225.42 636.381C1226.98 637.317 1227.76 638.876 1227.76 641.059L1225.89 668.658C1225.27 678.014 1222.62 685.655 1217.94 691.58C1213.57 697.193 1204.37 700 1190.34 700H1101.46ZM1311.14 700C1293.68 700 1281.2 696.57 1273.72 689.709C1266.23 682.848 1262.49 673.024 1262.49 660.238C1262.49 654.001 1262.96 643.398 1263.89 628.429C1264.83 613.148 1266.08 595.84 1267.64 576.505C1269.2 557.17 1270.76 536.743 1272.31 515.225C1273.87 493.707 1275.43 473.436 1276.99 454.413C1278.55 435.39 1279.8 418.705 1280.73 404.36C1281.67 390.014 1282.14 380.191 1282.14 374.889C1282.14 370.212 1284.63 367.873 1289.62 367.873H1315.35C1334.37 367.873 1347.16 371.927 1353.71 380.035C1360.26 388.143 1363.53 400.15 1363.53 416.054C1363.53 417.614 1363.22 422.603 1362.6 431.024C1362.29 439.444 1361.66 450.047 1360.73 462.833C1359.79 475.619 1358.7 489.965 1357.45 505.869C1356.52 521.462 1355.42 537.523 1354.18 554.051C1353.24 570.579 1352.15 586.796 1350.9 602.701C1349.97 618.294 1349.03 632.483 1348.1 645.269C1347.16 658.055 1346.38 668.814 1345.76 677.546C1345.13 685.966 1344.67 691.112 1344.35 692.983C1344.04 695.478 1343.42 697.349 1342.48 698.597C1341.55 699.532 1339.68 700 1336.87 700H1311.14ZM1538.23 363.195C1567.54 363.195 1589.22 369.588 1603.25 382.374C1617.6 395.16 1624.77 411.844 1624.77 432.427C1624.77 449.891 1619.93 463.301 1610.27 472.656C1600.6 481.7 1586.72 486.222 1568.63 486.222C1563.02 486.222 1559.43 485.754 1557.88 484.819C1556.32 483.571 1555.54 481.233 1555.54 477.802C1555.54 474.684 1555.22 470.629 1554.6 465.64C1554.29 460.65 1553.2 455.816 1551.33 451.138C1549.46 446.46 1546.49 442.562 1542.44 439.444C1538.38 436.013 1532.77 434.298 1525.6 434.298C1515.62 434.298 1506.73 437.417 1498.93 443.654C1491.14 449.579 1487.24 457.375 1487.24 467.043C1487.24 475.463 1490.36 482.324 1496.6 487.626C1503.14 492.927 1511.25 497.917 1520.92 502.595C1530.59 506.961 1541.04 511.483 1552.26 516.16C1563.8 520.838 1574.4 527.075 1584.07 534.872C1593.74 542.356 1601.69 551.868 1607.93 563.407C1614.48 574.634 1617.75 588.979 1617.75 606.443C1617.75 620.165 1615.41 633.107 1610.74 645.269C1606.37 657.12 1599.66 667.567 1590.62 676.611C1581.89 685.343 1570.66 692.204 1556.94 697.193C1543.53 702.183 1527.78 704.678 1509.69 704.678C1494.1 704.678 1479.6 702.963 1466.19 699.532C1453.09 696.102 1441.55 691.892 1431.57 686.902C1421.91 681.6 1414.27 675.987 1408.65 670.062C1403.04 663.825 1400.23 658.211 1400.23 653.221C1400.23 632.639 1401.32 617.826 1403.51 608.782C1406 599.738 1410.37 595.216 1416.6 595.216C1420.97 595.216 1425.49 597.087 1430.17 600.83C1435.16 604.572 1440.77 608.782 1447.01 613.46C1453.25 618.138 1460.42 622.348 1468.53 626.09C1476.95 629.832 1486.62 631.703 1497.53 631.703C1501.9 631.703 1506.11 631.392 1510.16 630.768C1514.53 629.832 1518.27 628.429 1521.39 626.558C1524.82 624.687 1527.47 622.192 1529.34 619.073C1531.52 615.955 1532.62 612.212 1532.62 607.846C1532.62 600.05 1529.65 593.813 1523.73 589.135C1517.8 584.457 1510.32 580.247 1501.27 576.505C1492.23 572.451 1482.41 568.396 1471.8 564.342C1461.51 559.976 1451.84 554.207 1442.8 547.034C1433.76 539.55 1426.27 530.038 1420.35 518.499C1414.42 506.961 1411.46 492.148 1411.46 474.06C1411.46 453.789 1415.2 436.637 1422.69 422.603C1430.48 408.57 1440.31 397.187 1452.16 388.455C1464.32 379.411 1477.88 373.018 1492.85 369.276C1508.13 365.222 1523.26 363.195 1538.23 363.195ZM1814.23 433.363L1796.45 692.983C1796.14 697.661 1794.43 700 1791.31 700H1765.58C1748.12 700 1735.64 696.57 1728.16 689.709C1720.67 682.848 1716.93 673.024 1716.93 660.238C1716.93 655.56 1717.09 648.544 1717.4 639.188C1718.02 629.832 1718.8 618.917 1719.74 606.443C1720.67 593.657 1721.61 579.935 1722.54 565.278C1723.79 550.309 1725.04 535.34 1726.29 520.371C1727.53 505.09 1728.62 489.965 1729.56 474.995C1730.81 460.026 1731.9 446.149 1732.83 433.363H1657.99C1654.56 433.363 1652.84 431.18 1652.84 426.814L1654.25 400.618C1654.56 396.563 1655.18 392.665 1656.12 388.923C1657.37 384.869 1659.24 381.282 1661.73 378.164C1664.23 375.045 1667.34 372.55 1671.09 370.679C1675.14 368.808 1679.97 367.873 1685.59 367.873H1894.69C1896.56 367.873 1898.27 368.34 1899.83 369.276C1901.39 370.212 1902.17 371.927 1902.17 374.422L1900.3 402.021C1899.68 411.377 1897.03 419.017 1892.35 424.942C1887.98 430.556 1878.78 433.363 1864.75 433.363H1814.23ZM2074.03 362.727C2096.8 362.727 2116.29 366.001 2132.51 372.55C2148.72 378.788 2161.98 388.143 2172.27 400.618C2182.56 412.78 2190.04 427.749 2194.72 445.525C2199.4 462.989 2201.74 482.948 2201.74 505.401C2201.74 517.876 2200.8 531.441 2198.93 546.099C2197.37 560.756 2194.25 575.569 2189.58 590.538C2185.21 605.196 2179.13 619.385 2171.33 633.107C2163.54 646.828 2153.4 658.991 2140.93 669.594C2128.76 680.197 2114.11 688.773 2096.95 695.322C2079.8 701.559 2059.53 704.678 2036.14 704.678C2010.26 704.678 1988.74 700.78 1971.59 692.983C1954.75 685.187 1941.18 674.74 1930.89 661.642C1920.91 648.232 1913.74 632.483 1909.37 614.395C1905.32 596.308 1903.29 576.973 1903.29 556.39C1903.29 532.065 1906.1 508.364 1911.71 485.287C1917.32 461.897 1926.68 441.159 1939.78 423.071C1953.19 404.984 1970.81 390.482 1992.64 379.567C2014.47 368.34 2041.6 362.727 2074.03 362.727ZM2064.21 435.234C2053.29 435.234 2043.78 437.261 2035.67 441.315C2027.88 445.057 2021.17 450.203 2015.56 456.752C2010.26 463.301 2005.89 470.629 2002.46 478.738C1999.34 486.846 1996.85 495.266 1994.98 503.998C1993.11 512.418 1991.86 520.682 1991.23 528.791C1990.61 536.587 1990.3 543.604 1990.3 549.841C1990.3 578.22 1994.98 598.958 2004.33 612.056C2014 625.154 2027.57 631.703 2045.03 631.703C2059.38 631.703 2071.07 627.181 2080.11 618.138C2089.16 608.782 2096.17 597.711 2101.16 584.925C2106.47 571.827 2110.05 558.417 2111.92 544.695C2113.79 530.662 2114.73 518.811 2114.73 509.144C2114.73 486.378 2110.83 468.446 2103.04 455.348C2095.24 441.939 2082.3 435.234 2064.21 435.234ZM2289.65 700C2271.88 700 2259.25 696.57 2251.76 689.709C2244.59 682.536 2241 672.089 2241 658.367C2241 654.625 2241.16 648.388 2241.47 639.656C2242.09 630.612 2242.87 620.009 2243.81 607.846C2244.74 595.684 2245.68 582.43 2246.62 568.085C2247.86 553.427 2249.11 538.614 2250.36 523.645C2252.85 492.148 2254.57 466.575 2255.5 446.928C2256.75 427.281 2257.69 411.844 2258.31 400.618C2259.25 386.584 2260.18 377.696 2261.12 373.954C2262.05 369.9 2264.08 367.873 2267.2 367.873C2276.87 367.873 2286.69 367.717 2296.67 367.405C2306.96 366.781 2316.78 366.157 2326.14 365.534C2335.5 364.91 2344.23 364.442 2352.34 364.13C2360.76 363.507 2368.24 363.195 2374.79 363.195C2394.75 363.195 2411.9 365.69 2426.25 370.679C2440.59 375.669 2452.13 382.686 2460.86 391.73C2469.91 400.773 2476.45 411.688 2480.51 424.475C2484.87 437.261 2487.06 451.606 2487.06 467.511C2487.06 491.836 2482.22 513.51 2472.56 532.533C2462.89 551.556 2447.45 566.058 2426.25 576.037L2465.54 632.171C2472.71 642.774 2478.17 651.038 2481.91 656.964C2485.65 662.577 2487.53 666.787 2487.53 669.594C2487.53 671.777 2486.12 674.896 2483.32 678.95C2480.82 682.692 2476.92 686.59 2471.62 690.644C2466.63 694.387 2460.39 697.661 2452.91 700.468C2445.74 703.274 2437.63 704.678 2428.58 704.678C2418.6 704.678 2409.87 701.403 2402.39 694.854C2395.22 688.305 2388.67 679.729 2382.74 669.126C2377.13 658.211 2372.14 645.737 2367.77 631.703C2363.72 617.67 2359.82 603.013 2356.08 587.732C2344.85 587.108 2335.65 586.016 2328.48 584.457C2327.54 598.179 2326.61 611.277 2325.67 623.751C2324.74 636.225 2323.96 647.452 2323.33 657.432C2322.71 667.099 2322.09 675.207 2321.46 681.756C2320.84 687.994 2320.53 691.736 2320.53 692.983C2320.21 695.478 2319.59 697.349 2318.65 698.597C2317.72 699.532 2315.85 700 2313.04 700H2289.65ZM2365.43 433.363C2361.69 433.363 2357.48 433.674 2352.8 434.298C2348.13 434.61 2343.14 435.078 2337.83 435.701C2337.21 446.616 2336.43 459.714 2335.5 474.995C2334.87 489.965 2333.94 506.025 2332.69 523.177C2343.6 525.672 2353.11 526.92 2361.22 526.92C2370.89 526.92 2378.69 525.048 2384.61 521.306C2390.85 517.564 2395.68 513.042 2399.11 507.74C2402.54 502.127 2404.73 496.202 2405.66 489.965C2406.91 483.727 2407.53 478.114 2407.53 473.124C2407.53 460.338 2404.42 450.515 2398.18 443.654C2391.94 436.793 2381.03 433.363 2365.43 433.363ZM2635.64 700C2616.93 700 2604.14 696.414 2597.28 689.241C2590.42 681.756 2586.99 670.374 2586.99 655.093C2586.99 649.791 2587.3 641.215 2587.93 629.364C2588.55 617.514 2589.95 599.114 2592.14 574.166C2589.64 569.488 2587.46 565.434 2585.59 562.003C2583.72 558.573 2581.85 554.987 2579.97 551.244C2578.1 547.502 2576.08 543.136 2573.89 538.146C2571.71 533.157 2568.9 526.92 2565.47 519.435C2560.17 507.896 2554.09 494.486 2547.23 479.205C2540.68 463.924 2534.29 449.267 2528.05 435.234C2521.81 420.888 2516.51 408.258 2512.15 397.343C2508.09 386.428 2506.06 379.567 2506.06 376.761C2506.06 370.212 2516.51 366.937 2537.41 366.937C2550.5 366.937 2560.95 368.34 2568.75 371.147C2576.86 373.642 2583.41 377.228 2588.39 381.906C2593.38 386.272 2597.13 391.574 2599.62 397.811C2602.12 403.736 2604.46 410.129 2606.64 416.99C2609.45 426.034 2611.47 432.739 2612.72 437.105C2613.97 441.471 2614.9 445.057 2615.53 447.864C2616.46 450.671 2617.4 453.477 2618.33 456.284C2619.27 458.779 2620.52 462.833 2622.08 468.446C2623.95 474.06 2626.44 481.856 2629.56 491.836C2632.68 501.815 2637.04 515.537 2642.66 533.001C2651.7 513.977 2658.87 498.541 2664.18 486.69C2669.79 474.839 2674.62 463.924 2678.68 453.945C2682.73 443.654 2686.47 433.207 2689.9 422.603C2693.65 411.688 2698.32 397.967 2703.94 381.438C2705.81 375.513 2707.68 371.771 2709.55 370.212C2711.73 368.34 2715.01 367.405 2719.37 367.405C2720.93 367.405 2725.14 367.717 2732 368.34C2739.18 368.652 2746.51 369.744 2753.99 371.615C2761.79 373.486 2768.8 376.449 2775.04 380.503C2781.28 384.557 2784.4 390.014 2784.4 396.875C2784.4 402.177 2782.53 409.661 2778.78 419.329C2775.35 428.997 2770.68 439.912 2764.75 452.074C2759.14 463.924 2752.43 476.555 2744.64 489.965C2737.15 503.374 2729.35 516.472 2721.25 529.258C2713.14 542.045 2705.03 553.895 2696.92 564.81C2689.12 575.413 2681.95 584.145 2675.4 591.006C2675.09 598.491 2674.62 607.379 2674 617.67C2673.69 627.961 2673.06 638.252 2672.13 648.544C2671.5 658.523 2670.88 667.723 2670.26 676.143C2669.63 684.251 2669.17 689.865 2668.85 692.983C2668.54 695.478 2667.92 697.349 2666.98 698.597C2666.05 699.532 2664.18 700 2661.37 700H2635.64Z" fill="#AD46FF"/>
<path fill-rule="evenodd" clip-rule="evenodd" d="M254.926 337.489C182.005 361.796 109.354 385.849 93.4804 390.939C77.6064 396.031 63.1016 401.504 61.249 403.106C54.4593 408.969 54.8038 412.205 65.3095 441.191L75.4418 469.151L76.3437 591.045L77.2456 712.939L82.0457 720.19C84.6848 724.179 89.9611 728.988 93.7708 730.88C100.42 734.181 106.847 734.318 254.926 734.318H409.156L417.567 729.374C422.194 726.654 427.876 721.377 430.194 717.649L434.41 710.868L434.915 600.255L435.418 489.641L429.233 483.455L423.045 477.268H256.609C165.07 477.268 90.587 476.855 91.092 476.35C92.1563 475.286 154.49 453.863 305.385 402.704C426.983 361.477 420.846 364.542 415.015 347.955C413.335 343.18 408.647 329.844 404.594 318.321C398.679 301.495 396.343 296.965 392.735 295.322C390.264 294.196 388.078 293.278 387.875 293.284C387.673 293.289 327.847 313.182 254.926 337.489ZM586.836 347.288C554.915 348.249 553.015 348.512 543.139 353.363C531.809 358.926 522.319 368.79 516.043 381.527L511.976 389.781V539.501C511.976 679.149 512.194 689.849 515.23 698.549C519.582 711.021 530.523 723.051 543.157 729.256L553.464 734.318H660.292H767.12L771.23 730.2L775.339 726.08L774.742 578.676L774.143 431.27L770.232 427.392C766.343 423.537 765.728 423.51 665.282 422.714C554.617 421.839 558.732 422.274 553.34 410.908C549.81 403.471 551.226 396.176 557.31 390.459L561.87 386.173L674.898 385.683C791.004 385.178 796.168 385.45 798.789 392.202C799.429 393.847 800.427 461.147 801.008 541.756L802.065 688.32H813.505C822.645 688.32 825.69 687.575 828.656 684.609C832.363 680.902 832.364 680.765 831.192 518.203C830.101 366.778 829.799 355.196 826.837 350.998L823.654 346.489L721.93 346.386C665.984 346.33 605.19 346.736 586.836 347.288Z" fill="#AD46FF"/>
</svg>
